<svg xmlns="http://www.w3.org/2000/svg" width="512" height="512" viewBox="0 0 512 512"><g fill="#0cc2aa"><path d="M443.108 115.988c-6.114-23.703-21.69-37.869-44.632-44.67-4.073-1.215-8.248-2.217-12.45-2.811-2.699-.39-5.538.102-8.312.26-14.083.825-28.156 1.679-42.229 2.514a66654.47 66654.47 0 0 1-44.465 2.653c-.176.01-.343.084-.909.223.724.52 1.215.891 1.726 1.253 11.532 8.117 23.054 16.253 34.623 24.324 1.252.882 1.586 1.605 1.085 3.146-9.973 31.356-19.881 62.741-29.854 94.107-.297.946-.918 1.901-1.651 2.579a67096.904 67096.904 0 0 1-106.01 98.365c-1.067.983-2.57 1.735-3.98 2.06-30.735 6.912-61.48 13.749-92.215 20.605-.594.129-1.197.203-1.939.334-5.436-15.132-10.854-30.17-16.253-45.208h-.297c-.362 3.497-.751 6.985-1.095 10.483a18686.582 18686.582 0 0 0-3.247 32.479c-1.039 10.521-2.069 21.041-3.108 31.562-.51 5.232-1.021 10.455-1.549 15.688-.028.288-.223.557-.343.845v4.453c.39 3.432.724 6.864 1.178 10.278 1.345 10.242 3.952 20.104 8.925 29.232 8.999 16.514 23.23 25.948 41.292 29.771 6.782 1.438 13.805 1.837 20.716 2.709.965.13 1.93.278 2.895.418h4.453c2.199-.241 4.397-.548 6.605-.696 11.977-.816 23.954-1.559 35.921-2.365 13.693-.928 27.386-1.911 41.088-2.83 11.968-.816 23.954-1.559 35.921-2.365 13.703-.928 27.396-1.902 41.088-2.83 11.977-.807 23.944-1.559 35.921-2.365 13.703-.919 27.396-1.893 41.098-2.829 10.056-.678 20.112-1.318 30.178-1.986 3.692-.25 7.385-.528 11.188-.797.306-3.711.603-7.329.891-10.957.956-12.45 1.93-24.909 2.876-37.359.789-10.427 1.558-20.846 2.356-31.264.808-10.483 1.643-20.967 2.459-31.44.668-8.702 1.317-17.395 1.985-26.087.807-10.604 1.642-21.208 2.458-31.812.668-8.638 1.317-17.265 1.976-25.902.826-10.724 1.67-21.458 2.486-32.183.798-10.362 1.568-20.716 2.356-31.078.575-7.403 1.531-14.797 1.661-22.2.167-9.511-.464-18.992-2.867-28.307zM82.746 401.753a4.341 4.341 0 0 1-.353.074c-.269-.575-.584-1.15-.816-1.744-3.989-10.057-5.668-20.567-5.975-31.319-.028-1.095.111-2.255.473-3.275 3.655-10.168 7.385-20.308 11.086-30.447.121-.334.297-.641.789-.891l-5.204 67.602zm61.907 31.997c-.158.037-.325.074-.492.12-16.745-34.455-33.49-68.91-50.384-103.653 30.447-6.782 60.635-13.508 91.231-20.326a1058783.3 1058783.3 0 0 1-40.355 123.859zm104.562-23.777c-18.489-33.806-36.876-67.454-55.57-101.632 45.792 13.601 91.055 27.034 136.783 40.616-25.243 23.192-51.507 44.252-81.213 61.016zm89.683-69.143a483607.011 483607.011 0 0 0-33.528-136.866c.158-.111.306-.223.455-.334 31.969 19.853 63.938 39.696 95.889 59.531-5.27 11.624-50.96 68.141-62.816 77.669zm77.492 76.258c-23.917-22.302-47.842-44.595-71.935-67.055 12.831-11.541 24.566-23.75 35.374-36.84 10.799-13.081 20.521-26.904 28.36-42.017.167.027.325.056.492.084l8.099 145.521-.39.307zm16.485-227.059c-41.905 2.625-83.55 5.241-125.557 7.876 9.602-30.317 19.121-60.366 28.713-90.665.687.51 1.234.881 1.735 1.289 31.348 25.68 62.677 51.377 94.07 77.001 1.707 1.392 1.012 2.782 1.039 4.499zM341.18 97.091c-.009-.167-.028-.325-.037-.492.705-.315 1.401-.64 2.106-.937 13.48-5.696 26.959-11.411 40.467-17.033 1.058-.445 2.403-.594 3.525-.38 11.699 2.227 22.627 6.216 31.709 14.268 6.837 6.059 11.327 13.601 14.083 22.684-30.809-6.078-61.331-12.098-91.853-18.11z"/><path fill-rule="evenodd" clip-rule="evenodd" d="M81.521 261.742c.464-12.691 3.767-24.678 8.498-36.32 8.043-19.816 19.408-37.666 32.795-54.234 24.548-30.346 53.585-55.44 87.79-74.403 12.904-7.152 26.394-12.941 40.894-16.059 8.897-1.911 17.868-2.728 26.857-.621 13.962 3.274 22.033 12.356 24.816 26.18 2.227 11.059.418 21.913-2.746 32.563-5.25 17.654-13.869 33.685-24.334 48.714-27.544 39.576-62.296 71.323-104.377 94.924-12.33 6.912-25.299 12.395-39.187 15.372-8.108 1.735-16.282 2.496-24.482.742-13.526-2.885-22.729-12.431-25.243-26.198-.64-3.507-.872-7.097-1.281-10.66z"/></g></svg>
